# AST/ASF file generated using VICON BodyLanguage
# -----------------------------------------------
:version 1.10
:name VICON
:units
  mass 1.0
  length 0.45
  angle deg
:documentation
   .ast/.asf automatically generated from VICON data using
   VICON BodyBuilder and BodyLanguage model FoxedUp or BRILLIANT.MOD
:root
   order TX TY TZ RX RY RZ
   axis XYZ
   position 0 0 0  
   orientation 0 0 0 
:bonedata
  begin
     id 1 
     name lhipjoint
     direction 0.61886 -0.69539 0.365302 
     length 2.20474 
     axis 0 0 0  XYZ
  end
  begin
     id 2 
     name lfemur
     direction 0.34202 -0.939693 0  
     length 6.65149  
     axis 0 0 20  XYZ
    dof rx ry rz
    limits (-160.0 20.0)
           (-70.0 70.0)
           (-60.0 70.0)
  end
  begin
     id 3 
     name ltibia
     direction 0.34202 -0.939693 0   
     length 6.35814   
     axis 0 0 20   XYZ
    dof rx
    limits (-10.0 170.0)
  end
  begin
     id 4 
     name lfoot
     direction 0.101224 -0.278109 0.955201   
     length 2.18766   
     axis -90 7.62852e-016 20   XYZ
    dof rx rz
    limits (-45.0 90.0)
           (-70.0 20.0)
  end
  begin
     id 5 
     name ltoes
     direction 1.53524e-011 -4.21877e-011 1   
     length 1.09206   
     axis -90 7.62852e-016 20   XYZ
    dof rx
    limits (-90.0 20.0)
  end
  begin
     id 6 
     name rhipjoint
     direction -0.600207 -0.708087 0.371972   
     length 2.1652  
     axis 0 0 0  XYZ 
  end
  begin
     id 7 
     name rfemur
     direction -0.34202 -0.939693 0   
     length 6.54691   
     axis 0 0 -20   XYZ
    dof rx ry rz
    limits (-160.0 20.0)
           (-70.0 70.0)
           (-70.0 60.0)
  end
  begin
     id 8 
     name rtibia
     direction -0.34202 -0.939693 0   
     length 6.37474   
     axis 0 0 -20   XYZ
    dof rx
    limits (-10.0 170.0)
 end
 begin
     id 9 
     name rfoot
     direction -0.111266 -0.3057 0.945604   
     length 2.00903  
     axis -90 -7.62852e-016 -20   XYZ
    dof rx rz
    limits (-45.0 90.0)
           (-20.0 70.0)
  end
  begin
     id 10 
     name rtoes
     direction -1.5362e-011 -4.21913e-011 1   
     length 1.00221   
     axis -90 -7.62852e-016 -20   XYZ
    dof rx
    limits (-90.0 20.0)
  end
  begin
     id 11 
     name lowerback
     direction -0.0224561 0.999731 -0.00577314   
     length 2.10409   
     axis 0 0 0   XYZ
    dof rx ry rz
    limits (-20.0 45.0)
           (-30.0 30.0)
           (-30.0 30.0)
  end
  begin
     id 12 
     name upperback
     direction 0.0213126 0.999185 -0.0342817   
     length 2.09783   
     axis 0 0 0   XYZ
    dof rx ry rz
    limits (-20.0 45.0)
           (-30.0 30.0)
           (-30.0 30.0)
  end
  begin
     id 13 
     name thorax
     direction 0.0312356 0.999036 -0.0308451   
     length 2.09788   
     axis 0 0 0   XYZ
    dof rx ry rz
    limits (-20.0 45.0)
           (-30.0 30.0)
           (-30.0 30.0)
  end
  begin
     id 14 
     name lowerneck
     direction -0.0114419 0.996481 0.0830329   
     length 1.38575   
     axis 0 0 0   XYZ
    dof rx ry rz
    limits (-20.0 45.0)
           (-30.0 30.0)
           (-30.0 30.0)
  end
  begin
     id 15 
     name upperneck
     direction -0.0075675 0.996187 -0.0869092   
     length 1.39401   
     axis 0 0 0   XYZ
    dof rx ry rz
    limits (-20.0 45.0)
           (-30.0 30.0)
           (-30.0 30.0)
  end
  begin
     id 16
     name head
     direction -0.00222073 0.999264 -0.0382974  
     length 1.3964  
     axis 0 0 0   XYZ
    dof rx ry rz
    limits (-20.0 45.0)
           (-30.0 30.0)
           (-30.0 30.0)
  end
  begin
     id 17 
     name lclavicle
     direction 0.965962 0.222138 0.132556  
     length 2.81514  
     axis 0 0 0   XYZ
    dof ry rz
    limits (-20.0 10.0)
           (0.0 20.0)
  end
  begin
     id 18 
     name lhumerus
     direction 1 -4.48972e-011 7.03471e-018   
     length 4.47366   
     axis 180 -30 -90   XYZ
    dof rx ry rz
    limits (-60.0 90.0)
           (-90.0 90.0)
           (-90.0 90.0)
  end
  begin
     id 19
     name lradius
     direction 1 -4.48951e-011 -6.22192e-028   
     length 3.19948   
     axis 180 -30 -90   XYZ
    dof rx
    limits (-10.0 170.0)
  end
  begin
     id 20
     name lwrist
     direction 1 -4.48967e-011 -1.24264e-027   
     length 1.59974   
     axis 1.40095e-015 90 90   XYZ
    dof ry
    limits (-180.0 0.0)
 end
  begin
     id 21 
     name lhand
     direction 1 -4.4897e-011 -2.48528e-027   
     length 0.492667   
     axis 1.58582e-015 90 90   XYZ
    dof rx rz
    limits (-90.0 90.0)
           (-45.0 45.0)
  end
  begin
     id 22 
     name lfingers
     direction 1 -4.48996e-011 -4.97056e-027   
     length 0.397201   
     axis 3.17164e-015 90 90   XYZ
    dof rx
    limits (0.0 90.0)
  end
  begin
     id 23
     name lthumb
     direction 0.707107 -6.34981e-011 0.707107   
     length 0.570303   
     axis -90 45 2.85299e-015   XYZ
    dof rx rz
    limits (-45.0 45.0)
           (-45.0 45.0)
  end
  begin
     id 24 
     name rclavicle
     direction -0.961164 0.229034 0.153972   
     length 3.09348  
     axis 0 0 0   XYZ 
    dof ry rz
    limits (-10.0 20.0)
           (-20.0 0.0)
  end
  begin
     id 25 
     name rhumerus
     direction -1 -4.48971e-011 -9.06263e-028  
     length 4.3269   
     axis 180 30 90   XYZ
    dof rx ry rz
    limits (-90.0 60.0)
           (-90.0 90.0)
           (-90.0 90.0)
  end
  begin
     id 26 
     name rradius
     direction -1 -4.48953e-011 1.44659e-027   
     length 3.1896   
     axis 180 30 90   XYZ
    dof rx
    limits (-10.0 170.0)
  end
  begin
     id 27 
     name rwrist
     direction -1 -4.48988e-011 -1.24264e-027   
     length 1.5948   
     axis 1.40095e-015 -90 -90   XYZ
    dof ry
    limits (-180.0 0.0)
  end
  begin
     id 28
     name rhand
     direction -1 -4.49033e-011 -2.48528e-027   
     length 0.464496   
     axis 1.58582e-015 -90 -90   XYZ
    dof rx rz
    limits (-90.0 90.0)
           (-45.0 45.0)
  end
  begin
     id 29
     name rfingers
     direction -1 -4.48905e-011 -4.97056e-027   
     length 0.374489   
     axis 3.17164e-015 -90 -90   XYZ
    dof rx
    limits (0.0 90.0)
  end
  begin
     id 30
     name rthumb
     direction -0.707107 -6.34909e-011 0.707107   
     length 0.537693   
     axis -90 -45 -2.85299e-015   XYZ
    dof rx rz
    limits (-45.0 45.0)
           (-45.0 45.0)
  end
:hierarchy
  begin
    root lhipjoint rhipjoint lowerback
    lhipjoint lfemur
    lfemur ltibia
    ltibia lfoot
    lfoot ltoes
    rhipjoint rfemur
    rfemur rtibia
    rtibia rfoot
    rfoot rtoes
    lowerback upperback
    upperback thorax
    thorax lowerneck lclavicle rclavicle
    lowerneck upperneck
    upperneck head
    lclavicle lhumerus
    lhumerus lradius
    lradius lwrist
    lwrist lhand lthumb
    lhand lfingers
    rclavicle rhumerus
    rhumerus rradius
    rradius rwrist
    rwrist rhand rthumb
    rhand rfingers
  end

#!OML:ASF G:\acrobat\cartwheel_test 2\Patient 1\Session 2\acrobat4.ASF
:FULLY-SPECIFIED
:DEGREES
3972
root 2.13513 14.5644 -6.92672 545.753 -161.593 182.059
lowerback 0.129037 -3.23853 -9.65179
upperback 0.293984 -4.32259 1.6927
thorax 1.08259 -2.23378 7.11971
lowerneck -9.44777 -11.9765 -11.4415
upperneck 9.83855 -15.24 5.85194
head 5.82611 -7.51489 2.2744
rclavicle 6.83648e-014 -2.31957e-014
rhumerus -37.2699 11.0664 -84.9723
rradius 37.444
rwrist 23.676
rhand -23.3731 -33.3045
rfingers 7.12502
rthumb 3.08275 296.738
lclavicle 6.83648e-014 -2.31957e-014
lhumerus -38.1687 -9.90965 87.6567
lradius 33.3339
lwrist 16.6506
lhand -29.1507 726.792
lfingers 7.12502
lthumb -2.49724 -683.242
rfemur -39.444 366.869 17.9103
rtibia 74.7362
rfoot 236.346 202.676
rtoes 77.4296
lfemur -25.4992 -133.855 -17.9162
ltibia 45.0398
lfoot 57.8625 -181.126
ltoes 79.54
3973
root 2.00204 14.4859 -6.89562 545.502 -161.812 182.23
lowerback 0.348267 -3.29602 -9.75506
upperback 0.389984 -4.41872 1.76937
thorax 1.09302 -2.2879 7.26607
lowerneck -9.58112 -12.0217 -11.6021
upperneck 10.1422 -15.2704 5.80111
head 5.95528 -7.53564 2.26088
rclavicle -7.67185e-015 2.51463e-014
rhumerus -37.4109 11.1892 -84.7418
rradius 37.2195
rwrist 24.1396
rhand -23.746 -33.5368
rfingers 7.12502
rthumb 2.7227 296.501
lclavicle -7.67185e-015 2.51463e-014
lhumerus -38.347 -9.81052 87.7798
lradius 33.8965
lwrist 16.6531
lhand -29.3119 726.874
lfingers 7.12502
lthumb -2.65297 -683.162
rfemur -30.3865 528.678 10.4872
rtibia 70.8651
rfoot 343.775 40.9971
rtoes 77.6342
lfemur -26.6017 -134.657 -17.0397
ltibia 45.6149
lfoot 54.06 -180.102
ltoes 78.8969
3974
root 1.96485 14.4693 -6.82937 545.269 -162.014 182.429
lowerback 0.374907 -3.29896 -9.81499
upperback 0.494134 -4.42128 1.76404
thorax 1.19202 -2.29896 7.29186
lowerneck -9.5063 -12.0979 -11.5131
upperneck 10.3247 -15.3783 5.6081
head 5.98727 -7.59918 2.17655
rclavicle 3.08862e-014 -3.54831e-014
rhumerus -37.6971 10.994 -84.5098
rradius 37.1212
rwrist 25.0048
rhand -23.642 -34.3111
rfingers 7.12502
rthumb 2.8231 295.728
lclavicle 3.08862e-014 -3.54831e-014
lhumerus -38.5241 -9.84623 87.8622
lradius 34.5842
lwrist 17.2625
lhand -29.8135 725.855
lfingers 7.12502
lthumb -3.13738 -684.188
rfemur -27.5168 528.312 10.9358
rtibia 66.9048
rfoot 361.339 35.5701
rtoes 74.7788
lfemur -27.4109 -135.599 -16.779
ltibia 46.0119
lfoot 50.6079 -179.599
ltoes 78.0759
3975
root 1.8364 14.6627 -6.74478 545.059 -162.302 182.644
lowerback 0.241435 -3.28188 -9.85294
upperback 0.536912 -4.38255 1.72819
thorax 1.30428 -2.28698 7.26653
lowerneck -9.04473 -12.1929 -11.5171
upperneck 10.3547 -15.5518 5.51994
head 5.92835 -7.69992 2.15644
rclavicle -8.16384e-014 -1.09332e-015
rhumerus -38.1713 10.6912 -84.328
rradius 37.1581
rwrist 25.8041
rhand -23.0306 -34.8333
rfingers 7.12502
rthumb 3.41352 295.214
lclavicle -8.16384e-014 -1.09332e-015
lhumerus -38.9749 -10.0164 88.0049
lradius 35.7256
lwrist 18.4032
lhand -30.1844 723.662
lfingers 7.12502
lthumb -3.49552 -686.387
rfemur -23.4435 527.883 11.988
rtibia 61.4669
rfoot 384.331 17.02
rtoes 52.8006
lfemur -19.7164 6.13285 -27.5745
ltibia 46.4642
lfoot 4.50036 -56.1313
ltoes 76.5853
3976
root 1.78764 14.6326 -6.65768 544.897 -162.653 182.899
lowerback 0.00182957 -3.28595 -9.93365
upperback 0.483414 -4.36471 1.7137
thorax 1.3845 -2.28042 7.28427
lowerneck -8.47479 -12.2908 -11.8995
upperneck 10.4378 -15.7201 5.62064
head 5.91413 -7.80254 2.25051
rclavicle 4.23411e-014 -3.37934e-015
rhumerus -38.8034 10.6438 -84.2559
rradius 37.311
rwrist 26.1931
rhand -22.3813 -34.9079
rfingers 7.12502
rthumb 4.04061 295.151
lclavicle 4.23411e-014 -3.37934e-015
lhumerus -39.7399 -10.2645 88.3043
lradius 37.2158
lwrist 19.6905
lhand -30.0246 723.532
lfingers 7.12502
lthumb -3.34125 -686.514
rfemur -20.1532 526.635 12.6547
rtibia 57.0813
rfoot 377.442 -22.7662
rtoes -51.4294
lfemur -19.3609 6.56785 -27.6433
ltibia 46.7858
lfoot -13.5991 -47.8646
ltoes 74.4201
3977
root 1.73825 14.5953 -6.56616 544.831 -163.063 183.1
lowerback -0.427806 -3.34334 -9.9734
upperback 0.378767 -4.40063 1.76395
thorax 1.5309 -2.30231 7.33505
lowerneck -7.92184 -12.3511 -12.4054
upperneck 10.6449 -15.8208 5.6544
head 5.94144 -7.88173 2.34451
rclavicle 4.28381e-014 2.66371e-014
rhumerus -39.5952 10.9364 -84.2837
rradius 37.7126
rwrist 26.1223
rhand -22.1223 -34.7364
rfingers 7.12502
rthumb 4.29066 295.327
lclavicle 4.28381e-014 2.66371e-014
lhumerus -40.5917 -10.4856 88.7532
lradius 38.7788
lwrist 20.9774
lhand -30.3435 725.13
lfingers 7.12502
lthumb -3.64919 -684.921
rfemur -17.311 524.762 13.5137
rtibia 53.2953
rfoot 358.542 -29.9706
rtoes -38.0449
lfemur -19.0837 7.13367 -27.6217
ltibia 47.0898
lfoot -18.9187 -40.9088
ltoes 72.905
